# xmcd
#
# Track frame offsets: 
#        150
#        12260
#        23964
#        32652
#        46302
#        56127
#        67527
#        75822
#        86247
#        96873
#        107517
#        117211
#        129245
#        139355
#
# Disc length: 1990 seconds
#
# Revision: 0
# Processed by: cddbd v1.5.2PL0 Copyright (c) Steve Scherf et al.
# Submitted via: ExactAudioCopyFreeDBPlugin 1.0
#
DISCID=a907c40e
DTITLE=Stringbean - Old Time Banjo Pickin' and Singin'
DYEAR=1964
DGENRE=Bluegrass
TTITLE0=Stringbean And His Banjo
TTITLE1=20 Cent Cotton and 90 Cent Meat
TTITLE2=Kentucky And Tennessee
TTITLE3=Wake Up Little Betty
TTITLE4=Polly
TTITLE5=Give Me Back My Five Dollars
TTITLE6=Keep My Skillet Good And Greasy
TTITLE7=Barnyard Banjo Pickin'
TTITLE8=Forgetting To Forget You
TTITLE9=Georgia Rose
TTITLE10=Herdin' Cattle 
TTITLE11=Birdie
TTITLE12=Don't Bob Your Hair, Girls
TTITLE13=Working On A Building
EXTD=
EXTT0=
EXTT1=
EXTT2=
EXTT3=
EXTT4=
EXTT5=
EXTT6=
EXTT7=
EXTT8=
EXTT9=
EXTT10=
EXTT11=
EXTT12=
EXTT13=
PLAYORDER=
